<svg width="579" height="180" viewBox="0 0 579 180" fill="none" xmlns="http://www.w3.org/2000/svg">
<path d="M180 90C180 107.8 174.722 125.201 164.832 140.001C154.943 154.802 140.887 166.337 124.442 173.149C107.996 179.961 89.9002 181.743 72.4419 178.271C54.9836 174.798 38.9471 166.226 26.3604 153.64C13.7737 141.053 5.20199 125.016 1.72932 107.558C-1.74335 90.0998 0.0389552 72.0038 6.85084 55.5585C13.6627 39.1131 25.1983 25.0571 39.9987 15.1677C54.7991 5.27841 72.1997 -2.12267e-07 90 0L90 45C81.0998 45 72.3996 47.6392 64.9993 52.5839C57.5991 57.5285 51.8314 64.5566 48.4254 72.7792C45.0195 81.0019 44.1283 90.0499 45.8647 98.7791C47.601 107.508 51.8868 115.526 58.1802 121.82C64.4736 128.113 72.4918 132.399 81.2209 134.135C89.9501 135.872 98.9981 134.981 107.221 131.575C115.443 128.169 122.471 122.401 127.416 115.001C132.361 107.6 135 98.9002 135 90H180Z" fill="white"/>
<path d="M180 90C180 113.869 170.518 136.761 153.64 153.64C136.761 170.518 113.869 180 90 180C66.1305 180 43.2387 170.518 26.3604 153.64C9.48212 136.761 3.60419e-06 113.869 0 90L45 90C45 101.935 49.7411 113.381 58.1802 121.82C66.6193 130.259 78.0653 135 90 135C101.935 135 113.381 130.259 121.82 121.82C130.259 113.381 135 101.935 135 90H180Z" fill="#5CE1E6"/>
<path d="M117 90C117 97.1608 114.155 104.028 109.092 109.092C104.028 114.155 97.1609 117 90 117C82.8392 117 75.9716 114.155 70.9081 109.092C65.8447 104.028 63 97.1608 63 90L90 90H117Z" fill="white"/>
<path d="M63 90C63 82.8392 65.8446 75.9716 70.9081 70.9081C75.9716 65.8446 82.8391 63 90 63C97.1608 63 104.028 65.8446 109.092 70.9081C114.155 75.9716 117 82.8392 117 90L90 90H63Z" fill="#5CE1E6"/>
<path d="M200.046 92.176C200.046 87.8773 200.976 84.054 202.836 80.706C204.696 77.3167 207.279 74.692 210.586 72.832C213.934 70.9307 217.716 69.98 221.932 69.98C227.099 69.98 231.521 71.344 235.2 74.072C238.879 76.8 241.338 80.52 242.578 85.232H230.922C230.054 83.4133 228.814 82.0287 227.202 81.078C225.631 80.1273 223.833 79.652 221.808 79.652C218.543 79.652 215.897 80.7887 213.872 83.062C211.847 85.3353 210.834 88.3733 210.834 92.176C210.834 95.9787 211.847 99.0167 213.872 101.29C215.897 103.563 218.543 104.7 221.808 104.7C223.833 104.7 225.631 104.225 227.202 103.274C228.814 102.323 230.054 100.939 230.922 99.12H242.578C241.338 103.832 238.879 107.552 235.2 110.28C231.521 112.967 227.099 114.31 221.932 114.31C217.716 114.31 213.934 113.38 210.586 111.52C207.279 109.619 204.696 106.994 202.836 103.646C200.976 100.298 200.046 96.4747 200.046 92.176ZM270.337 79.032C274.305 79.032 277.487 80.3547 279.885 83C282.282 85.604 283.481 89.2 283.481 93.788V114H272.941V95.214C272.941 92.8993 272.341 91.1013 271.143 89.82C269.944 88.5387 268.332 87.898 266.307 87.898C264.281 87.898 262.669 88.5387 261.471 89.82C260.272 91.1013 259.673 92.8993 259.673 95.214V114H249.071V68.12H259.673V84.054C260.747 82.5247 262.215 81.3053 264.075 80.396C265.935 79.4867 268.022 79.032 270.337 79.032ZM288.74 96.64C288.74 93.0853 289.401 89.9647 290.724 87.278C292.088 84.5913 293.927 82.5247 296.242 81.078C298.557 79.6313 301.14 78.908 303.992 78.908C306.431 78.908 308.559 79.404 310.378 80.396C312.238 81.388 313.664 82.69 314.656 84.302V79.404H325.258V114H314.656V109.102C313.623 110.714 312.176 112.016 310.316 113.008C308.497 114 306.369 114.496 303.93 114.496C301.119 114.496 298.557 113.773 296.242 112.326C293.927 110.838 292.088 108.751 290.724 106.064C289.401 103.336 288.74 100.195 288.74 96.64ZM314.656 96.702C314.656 94.0567 313.912 91.9693 312.424 90.44C310.977 88.9107 309.2 88.146 307.092 88.146C304.984 88.146 303.186 88.9107 301.698 90.44C300.251 91.928 299.528 93.9947 299.528 96.64C299.528 99.2853 300.251 101.393 301.698 102.964C303.186 104.493 304.984 105.258 307.092 105.258C309.2 105.258 310.977 104.493 312.424 102.964C313.912 101.435 314.656 99.3473 314.656 96.702ZM359.588 87.836V96.64H332.308V87.836H359.588Z" fill="white"/>
<path d="M367.095 92.176C367.095 87.8773 368.025 84.054 369.885 80.706C371.745 77.3167 374.328 74.692 377.635 72.832C380.983 70.9307 384.765 69.98 388.981 69.98C394.147 69.98 398.57 71.344 402.249 74.072C405.927 76.8 408.387 80.52 409.627 85.232H397.971C397.103 83.4133 395.863 82.0287 394.251 81.078C392.68 80.1273 390.882 79.652 388.857 79.652C385.591 79.652 382.946 80.7887 380.921 83.062C378.895 85.3353 377.883 88.3733 377.883 92.176C377.883 95.9787 378.895 99.0167 380.921 101.29C382.946 103.563 385.591 104.7 388.857 104.7C390.882 104.7 392.68 104.225 394.251 103.274C395.863 102.323 397.103 100.939 397.971 99.12H409.627C408.387 103.832 405.927 107.552 402.249 110.28C398.57 112.967 394.147 114.31 388.981 114.31C384.765 114.31 380.983 113.38 377.635 111.52C374.328 109.619 371.745 106.994 369.885 103.646C368.025 100.298 367.095 96.4747 367.095 92.176ZM437.385 79.032C441.353 79.032 444.536 80.3547 446.933 83C449.331 85.604 450.529 89.2 450.529 93.788V114H439.989V95.214C439.989 92.8993 439.39 91.1013 438.191 89.82C436.993 88.5387 435.381 87.898 433.355 87.898C431.33 87.898 429.718 88.5387 428.519 89.82C427.321 91.1013 426.721 92.8993 426.721 95.214V114H416.119V68.12H426.721V84.054C427.796 82.5247 429.263 81.3053 431.123 80.396C432.983 79.4867 435.071 79.032 437.385 79.032ZM463.229 75.808C461.369 75.808 459.839 75.2707 458.641 74.196C457.483 73.08 456.905 71.716 456.905 70.104C456.905 68.4507 457.483 67.0867 458.641 66.012C459.839 64.896 461.369 64.338 463.229 64.338C465.047 64.338 466.535 64.896 467.693 66.012C468.891 67.0867 469.491 68.4507 469.491 70.104C469.491 71.716 468.891 73.08 467.693 74.196C466.535 75.2707 465.047 75.808 463.229 75.808ZM468.499 79.404V114H457.897V79.404H468.499ZM497.262 79.032C501.313 79.032 504.537 80.3547 506.934 83C509.373 85.604 510.592 89.2 510.592 93.788V114H500.052V95.214C500.052 92.8993 499.453 91.1013 498.254 89.82C497.055 88.5387 495.443 87.898 493.418 87.898C491.393 87.898 489.781 88.5387 488.582 89.82C487.383 91.1013 486.784 92.8993 486.784 95.214V114H476.182V79.404H486.784V83.992C487.859 82.4627 489.305 81.264 491.124 80.396C492.943 79.4867 494.989 79.032 497.262 79.032ZM531.103 78.908C533.542 78.908 535.671 79.404 537.489 80.396C539.349 81.388 540.775 82.69 541.767 84.302V79.404H552.369V113.938C552.369 117.121 551.729 119.993 550.447 122.556C549.207 125.16 547.285 127.227 544.681 128.756C542.119 130.285 538.915 131.05 535.071 131.05C529.946 131.05 525.792 129.831 522.609 127.392C519.427 124.995 517.608 121.729 517.153 117.596H527.631C527.962 118.919 528.747 119.952 529.987 120.696C531.227 121.481 532.757 121.874 534.575 121.874C536.766 121.874 538.502 121.233 539.783 119.952C541.106 118.712 541.767 116.707 541.767 113.938V109.04C540.734 110.652 539.308 111.975 537.489 113.008C535.671 114 533.542 114.496 531.103 114.496C528.251 114.496 525.668 113.773 523.353 112.326C521.039 110.838 519.199 108.751 517.835 106.064C516.513 103.336 515.851 100.195 515.851 96.64C515.851 93.0853 516.513 89.9647 517.835 87.278C519.199 84.5913 521.039 82.5247 523.353 81.078C525.668 79.6313 528.251 78.908 531.103 78.908ZM541.767 96.702C541.767 94.0567 541.023 91.9693 539.535 90.44C538.089 88.9107 536.311 88.146 534.203 88.146C532.095 88.146 530.297 88.9107 528.809 90.44C527.363 91.928 526.639 93.9947 526.639 96.64C526.639 99.2853 527.363 101.393 528.809 102.964C530.297 104.493 532.095 105.258 534.203 105.258C536.311 105.258 538.089 104.493 539.535 102.964C541.023 101.435 541.767 99.3473 541.767 96.702Z" fill="#5CE1E6"/>
</svg>
